<?xml version="1.0" standalone="no"?>
<!DOCTYPE svg PUBLIC "-//W3C//DTD SVG 20010904//EN"
 "http://www.w3.org/TR/2001/REC-SVG-20010904/DTD/svg10.dtd">
<svg version="1.0" xmlns="http://www.w3.org/2000/svg"
 width="240.000000pt" height="240.000000pt" viewBox="0 0 240.000000 240.000000"
 preserveAspectRatio="xMidYMid meet">

<g transform="translate(0.000000,240.000000) scale(0.100000,-0.100000)"
fill="#000000" stroke="none">
<path d="M2100 2371 c-84 -26 -173 -93 -248 -186 l-32 -40 6 30 c3 17 18 55
32 86 26 53 26 56 7 51 -40 -10 -170 -153 -206 -227 -32 -66 -34 -76 -38 -193
-4 -161 11 -225 99 -412 106 -227 140 -353 140 -519 0 -125 -25 -227 -87 -351
-66 -132 -180 -248 -303 -308 -115 -56 -184 -73 -322 -79 -147 -7 -238 12
-366 73 -170 82 -309 243 -383 443 -28 74 -33 102 -37 206 -5 145 17 256 78
380 67 139 142 225 300 342 102 76 310 167 326 141 3 -5 5 -327 3 -716 l-4
-707 75 0 75 0 3 718 2 717 150 0 150 0 0 55 0 55 -150 0 -150 0 0 113 c0 63
-3 162 -7 220 l-6 107 -68 0 -69 0 -2 -217 -3 -218 -157 4 -158 4 0 -61 c0
-59 1 -61 28 -64 25 -3 24 -5 -22 -26 -118 -54 -251 -175 -346 -316 -67 -101
-135 -243 -154 -326 -30 -124 -13 -379 32 -510 56 -160 162 -311 294 -415 194
-153 390 -214 657 -202 150 6 226 24 346 82 170 82 283 201 379 400 96 198
125 314 133 545 6 192 -10 334 -57 496 -54 182 -60 296 -24 451 25 115 112
271 188 342 14 14 26 28 26 33 0 10 -96 9 -130 -1z"/>
</g>
</svg>
